%TF.GenerationSoftware,KiCad,Pcbnew,9.0.6*%
%TF.CreationDate,2026-06-17T20:19:38+03:00*%
%TF.ProjectId,final,66696e61-6c2e-46b6-9963-61645f706362,rev?*%
%TF.SameCoordinates,Original*%
%TF.FileFunction,Soldermask,Bot*%
%TF.FilePolarity,Negative*%
%FSLAX46Y46*%
G04 Gerber Fmt 4.6, Leading zero omitted, Abs format (unit mm)*
G04 Created by KiCad (PCBNEW 9.0.6) date 2026-06-17 20:19:38*
%MOMM*%
%LPD*%
G01*
G04 APERTURE LIST*
G04 Aperture macros list*
%AMRoundRect*
0 Rectangle with rounded corners*
0 $1 Rounding radius*
0 $2 $3 $4 $5 $6 $7 $8 $9 X,Y pos of 4 corners*
0 Add a 4 corners polygon primitive as box body*
4,1,4,$2,$3,$4,$5,$6,$7,$8,$9,$2,$3,0*
0 Add four circle primitives for the rounded corners*
1,1,$1+$1,$2,$3*
1,1,$1+$1,$4,$5*
1,1,$1+$1,$6,$7*
1,1,$1+$1,$8,$9*
0 Add four rect primitives between the rounded corners*
20,1,$1+$1,$2,$3,$4,$5,0*
20,1,$1+$1,$4,$5,$6,$7,0*
20,1,$1+$1,$6,$7,$8,$9,0*
20,1,$1+$1,$8,$9,$2,$3,0*%
G04 Aperture macros list end*
%ADD10C,6.400000*%
%ADD11C,0.500000*%
%ADD12RoundRect,0.225000X-0.375000X0.225000X-0.375000X-0.225000X0.375000X-0.225000X0.375000X0.225000X0*%
%ADD13C,5.000000*%
%ADD14C,3.300000*%
%ADD15RoundRect,0.260000X-1.065000X-1.040000X1.065000X-1.040000X1.065000X1.040000X-1.065000X1.040000X0*%
%ADD16C,2.400000*%
%ADD17RoundRect,0.260000X-1.199376X-0.881659X0.909895X-1.178098X1.199376X0.881659X-0.909895X1.178098X0*%
%ADD18RoundRect,0.260000X-1.117970X-0.982837X1.009111X-1.094313X1.117970X0.982837X-1.009111X1.094313X0*%
%ADD19C,2.000000*%
%ADD20RoundRect,0.225000X-0.212260X0.382356X-0.437260X-0.007356X0.212260X-0.382356X0.437260X0.007356X0*%
%ADD21RoundRect,0.250000X0.450000X-0.262500X0.450000X0.262500X-0.450000X0.262500X-0.450000X-0.262500X0*%
%ADD22RoundRect,0.260000X-0.909895X-1.178098X1.199376X-0.881659X0.909895X1.178098X-1.199376X0.881659X0*%
%ADD23RoundRect,0.225000X-0.437260X0.007356X-0.212260X-0.382356X0.437260X-0.007356X0.212260X0.382356X0*%
%ADD24RoundRect,0.525400X0.900400X0.525400X-0.900400X0.525400X-0.900400X-0.525400X0.900400X-0.525400X0*%
%ADD25RoundRect,0.775400X-0.775400X-0.775400X0.775400X-0.775400X0.775400X0.775400X-0.775400X0.775400X0*%
%ADD26RoundRect,0.300400X-0.300400X1.000400X-0.300400X-1.000400X0.300400X-1.000400X0.300400X1.000400X0*%
%ADD27C,1.700000*%
%ADD28RoundRect,0.260000X-1.442317X-0.368166X0.402317X-1.433166X1.442317X0.368166X-0.402317X1.433166X0*%
%ADD29RoundRect,0.225000X-0.353963X0.256827X-0.393183X-0.191460X0.353963X-0.256827X0.393183X0.191460X0*%
%ADD30RoundRect,0.250000X-0.450000X0.262500X-0.450000X-0.262500X0.450000X-0.262500X0.450000X0.262500X0*%
%ADD31RoundRect,0.260000X-1.009111X-1.094313X1.117970X-0.982837X1.009111X1.094313X-1.117970X0.982837X0*%
%ADD32RoundRect,0.260000X-0.402317X-1.433166X1.442317X-0.368166X0.402317X1.433166X-1.442317X0.368166X0*%
G04 APERTURE END LIST*
D10*
%TO.C,H11*%
X185204100Y-103174800D03*
%TD*%
%TO.C,H12*%
X136131300Y-104114600D03*
%TD*%
D11*
%TO.C,H3*%
X211969537Y-90970563D03*
X216969537Y-90970563D03*
X211969537Y-90220563D03*
X211969537Y-90220563D03*
X216969537Y-90220563D03*
X216969537Y-90220563D03*
X211969537Y-89470563D03*
X216969537Y-89470563D03*
X211969537Y-88720563D03*
X216969537Y-88720563D03*
X211969537Y-87970563D03*
X216969537Y-87970563D03*
X211969537Y-87220563D03*
X216969537Y-87220563D03*
X211969537Y-86470563D03*
X216969537Y-86470563D03*
X211969537Y-85720563D03*
X216969537Y-85720563D03*
X211969537Y-84970563D03*
X216969537Y-84970563D03*
X211969537Y-84220563D03*
X216969537Y-84220563D03*
X211969537Y-83470563D03*
X216969537Y-83470563D03*
%TD*%
D10*
%TO.C,H13*%
X191846200Y-72923400D03*
%TD*%
D11*
%TO.C,H2*%
X211969537Y-64630763D03*
X216969537Y-64630763D03*
X211969537Y-63880763D03*
X211969537Y-63880763D03*
X216969537Y-63880763D03*
X216969537Y-63880763D03*
X211969537Y-63130763D03*
X216969537Y-63130763D03*
X211969537Y-62380763D03*
X216969537Y-62380763D03*
X211969537Y-61630763D03*
X216969537Y-61630763D03*
X211969537Y-60880763D03*
X216969537Y-60880763D03*
X211969537Y-60130763D03*
X216969537Y-60130763D03*
X211969537Y-59380763D03*
X216969537Y-59380763D03*
X211969537Y-58630763D03*
X216969537Y-58630763D03*
X211969537Y-57880763D03*
X216969537Y-57880763D03*
X211969537Y-57130763D03*
X216969537Y-57130763D03*
%TD*%
D12*
%TO.C,D28*%
X169075100Y-67666600D03*
X169075100Y-70966600D03*
%TD*%
D13*
%TO.C,SW39*%
X82769600Y-89574000D03*
D14*
X87769600Y-85824000D03*
D15*
X91014600Y-85824000D03*
X79524600Y-83624000D03*
D14*
X82769600Y-83624000D03*
D16*
X77769600Y-94724000D03*
%TD*%
D13*
%TO.C,SW31*%
X121119900Y-68155400D03*
D14*
X126119900Y-64405400D03*
D15*
X129364900Y-64405400D03*
X117874900Y-62205400D03*
D14*
X121119900Y-62205400D03*
D16*
X116119900Y-73305400D03*
%TD*%
D13*
%TO.C,SW30*%
X140366900Y-65328000D03*
D14*
X145366900Y-61578000D03*
D15*
X148611900Y-61578000D03*
X137121900Y-59378000D03*
D14*
X140366900Y-59378000D03*
D16*
X135366900Y-70478000D03*
%TD*%
D13*
%TO.C,SW41*%
X171577000Y-108000800D03*
D14*
X177050238Y-104983160D03*
D17*
X180263659Y-105434777D03*
X169191659Y-101657088D03*
D14*
X172405080Y-102108705D03*
D16*
X165908918Y-112404815D03*
%TD*%
D13*
%TO.C,SW13*%
X250336900Y-87659400D03*
D14*
X255336900Y-83909400D03*
D15*
X258581900Y-83909400D03*
X247091900Y-81709400D03*
D14*
X250336900Y-81709400D03*
D16*
X245336900Y-92809400D03*
%TD*%
D13*
%TO.C,SW42*%
X150901400Y-106019600D03*
D14*
X156090808Y-102536419D03*
D18*
X159331360Y-102706250D03*
X147972246Y-99907925D03*
D14*
X151212799Y-100077755D03*
D16*
X145638722Y-110900862D03*
%TD*%
D13*
%TO.C,SW34*%
X178625500Y-87615600D03*
D14*
X183625500Y-83865600D03*
D15*
X186870500Y-83865600D03*
X175380500Y-81665600D03*
D14*
X178625500Y-81665600D03*
D16*
X173625500Y-92765600D03*
%TD*%
D19*
%TO.C,TP2*%
X221973800Y-73710800D03*
%TD*%
D13*
%TO.C,SW35*%
X159473900Y-85881400D03*
D14*
X164473900Y-82131400D03*
D15*
X167718900Y-82131400D03*
X156228900Y-79931400D03*
D14*
X159473900Y-79931400D03*
D16*
X154473900Y-91031400D03*
%TD*%
D20*
%TO.C,D40*%
X188357480Y-108584098D03*
X186707480Y-111441984D03*
%TD*%
D13*
%TO.C,SW15*%
X289116500Y-83010400D03*
D14*
X294116500Y-79260400D03*
D15*
X297361500Y-79260400D03*
X285871500Y-77060400D03*
D14*
X289116500Y-77060400D03*
D16*
X284116500Y-88160400D03*
%TD*%
D12*
%TO.C,D3*%
X279318300Y-51345600D03*
X279318300Y-54645600D03*
%TD*%
%TO.C,D12*%
X337585900Y-72859400D03*
X337585900Y-76159400D03*
%TD*%
D13*
%TO.C,SW14*%
X269539300Y-85925200D03*
D14*
X274539300Y-82175200D03*
D15*
X277784300Y-82175200D03*
X266294300Y-79975200D03*
D14*
X269539300Y-79975200D03*
D16*
X264539300Y-91075200D03*
%TD*%
D12*
%TO.C,D6*%
X337357300Y-55409600D03*
X337357300Y-58709600D03*
%TD*%
D21*
%TO.C,R2*%
X222126200Y-70180200D03*
X222126200Y-68355200D03*
%TD*%
D12*
%TO.C,D23*%
X149745700Y-53308400D03*
X149745700Y-56608400D03*
%TD*%
D13*
%TO.C,SW9*%
X289116500Y-65415400D03*
D14*
X294116500Y-61665400D03*
D15*
X297361500Y-61665400D03*
X285871500Y-59465400D03*
D14*
X289116500Y-59465400D03*
D16*
X284116500Y-70565400D03*
%TD*%
D12*
%TO.C,D32*%
X92678100Y-72823600D03*
X92678100Y-76123600D03*
%TD*%
D13*
%TO.C,SW8*%
X269539300Y-68330200D03*
D14*
X274539300Y-64580200D03*
D15*
X277784300Y-64580200D03*
X266294300Y-62380200D03*
D14*
X269539300Y-62380200D03*
D16*
X264539300Y-73480200D03*
%TD*%
D13*
%TO.C,SW4*%
X308360500Y-51056000D03*
D14*
X313360500Y-47306000D03*
D15*
X316605500Y-47306000D03*
X305115500Y-45106000D03*
D14*
X308360500Y-45106000D03*
D16*
X303360500Y-56206000D03*
%TD*%
D19*
%TO.C,TP4*%
X204622400Y-72796400D03*
%TD*%
D12*
%TO.C,D33*%
X73043900Y-70918600D03*
X73043900Y-74218600D03*
%TD*%
D10*
%TO.C,H8*%
X337058000Y-63144400D03*
%TD*%
D12*
%TO.C,D37*%
X111086900Y-89891600D03*
X111086900Y-93191600D03*
%TD*%
D13*
%TO.C,SW38*%
X102019100Y-89636600D03*
D14*
X107019100Y-85886600D03*
D15*
X110264100Y-85886600D03*
X98774100Y-83686600D03*
D14*
X102019100Y-83686600D03*
D16*
X97019100Y-94786600D03*
%TD*%
D13*
%TO.C,SW20*%
X257454400Y-107797600D03*
D14*
X261883841Y-103388229D03*
D22*
X265097261Y-102936613D03*
X253412900Y-102357122D03*
D14*
X256626321Y-101905505D03*
D16*
X253219801Y-113593347D03*
%TD*%
D12*
%TO.C,D20*%
X247689829Y-108633738D03*
X247689829Y-111933738D03*
%TD*%
D10*
%TO.C,H4*%
X243809100Y-104013000D03*
%TD*%
D13*
%TO.C,SW33*%
X82769600Y-71979000D03*
D14*
X87769600Y-68229000D03*
D15*
X91014600Y-68229000D03*
X79524600Y-66029000D03*
D14*
X82769600Y-66029000D03*
D16*
X77769600Y-77129000D03*
%TD*%
D12*
%TO.C,D25*%
X111544100Y-53950600D03*
X111544100Y-57250600D03*
%TD*%
D13*
%TO.C,SW10*%
X308360500Y-68651000D03*
D14*
X313360500Y-64901000D03*
D15*
X316605500Y-64901000D03*
X305115500Y-62701000D03*
D14*
X308360500Y-62701000D03*
D16*
X303360500Y-73801000D03*
%TD*%
D23*
%TO.C,D19*%
X224459528Y-118018796D03*
X226109530Y-120876680D03*
%TD*%
D13*
%TO.C,SW12*%
X346926900Y-72077400D03*
D14*
X351926900Y-68327400D03*
D15*
X355171900Y-68327400D03*
X343681900Y-66127400D03*
D14*
X346926900Y-66127400D03*
D16*
X341926900Y-77227400D03*
%TD*%
D12*
%TO.C,D38*%
X92424100Y-91543400D03*
X92424100Y-94843400D03*
%TD*%
%TO.C,D14*%
X259684100Y-89478200D03*
X259684100Y-92778200D03*
%TD*%
D10*
%TO.C,H7*%
X337337400Y-80975200D03*
%TD*%
D13*
%TO.C,SW37*%
X121119900Y-85750400D03*
D14*
X126119900Y-82000400D03*
D15*
X129364900Y-82000400D03*
X117874900Y-79800400D03*
D14*
X121119900Y-79800400D03*
D16*
X116119900Y-90900400D03*
%TD*%
D12*
%TO.C,D21*%
X269334329Y-108541938D03*
X269334329Y-111841938D03*
%TD*%
D24*
%TO.C,U2*%
X208262000Y-45897800D03*
X208262000Y-48437800D03*
X208262000Y-50977800D03*
X208262000Y-53517800D03*
X208262000Y-56057800D03*
X208262000Y-58597800D03*
X208262000Y-61137800D03*
X192097000Y-61137800D03*
X192097000Y-58597800D03*
X192097000Y-56057800D03*
X192097000Y-53517800D03*
X192097000Y-50977800D03*
X192097000Y-48437800D03*
X192097000Y-45897800D03*
D25*
X204652000Y-53917800D03*
X204652000Y-50517800D03*
D26*
X196397000Y-62754700D03*
X194492000Y-62754700D03*
D27*
X201477000Y-44949300D03*
X198937000Y-44949300D03*
X201477000Y-47489300D03*
X198937000Y-47489300D03*
%TD*%
D13*
%TO.C,SW40*%
X195199000Y-115544600D03*
D14*
X201404127Y-114797005D03*
D28*
X204214379Y-116419504D03*
X195363748Y-108769249D03*
D14*
X198174000Y-110391749D03*
D16*
X188293873Y-117504631D03*
%TD*%
D12*
%TO.C,D39*%
X73678900Y-88266800D03*
X73678900Y-91566800D03*
%TD*%
D13*
%TO.C,SW36*%
X140366900Y-82923000D03*
D14*
X145366900Y-79173000D03*
D15*
X148611900Y-79173000D03*
X137121900Y-76973000D03*
D14*
X140366900Y-76973000D03*
D16*
X135366900Y-88073000D03*
%TD*%
D13*
%TO.C,SW16*%
X308360500Y-86246000D03*
D14*
X313360500Y-82496000D03*
D15*
X316605500Y-82496000D03*
X305115500Y-80296000D03*
D14*
X308360500Y-80296000D03*
D16*
X303360500Y-91396000D03*
%TD*%
D24*
%TO.C,U1*%
X236840200Y-45796200D03*
X236840200Y-48336200D03*
X236840200Y-50876200D03*
X236840200Y-53416200D03*
X236840200Y-55956200D03*
X236840200Y-58496200D03*
X236840200Y-61036200D03*
X220675200Y-61036200D03*
X220675200Y-58496200D03*
X220675200Y-55956200D03*
X220675200Y-53416200D03*
X220675200Y-50876200D03*
X220675200Y-48336200D03*
X220675200Y-45796200D03*
D25*
X233230200Y-53816200D03*
X233230200Y-50416200D03*
D26*
X224975200Y-62653100D03*
X223070200Y-62653100D03*
D27*
X230055200Y-44847700D03*
X227515200Y-44847700D03*
X230055200Y-47387700D03*
X227515200Y-47387700D03*
%TD*%
D12*
%TO.C,D18*%
X337331900Y-91579200D03*
X337331900Y-94879200D03*
%TD*%
D13*
%TO.C,SW7*%
X250336900Y-70064400D03*
D14*
X255336900Y-66314400D03*
D15*
X258581900Y-66314400D03*
X247091900Y-64114400D03*
D14*
X250336900Y-64114400D03*
D16*
X245336900Y-75214400D03*
%TD*%
D12*
%TO.C,D13*%
X241065900Y-87446200D03*
X241065900Y-90746200D03*
%TD*%
%TO.C,D26*%
X92449500Y-55373800D03*
X92449500Y-58673800D03*
%TD*%
D10*
%TO.C,H10*%
X92329000Y-80772000D03*
%TD*%
D12*
%TO.C,D22*%
X169379900Y-50870000D03*
X169379900Y-54170000D03*
%TD*%
%TO.C,D24*%
X130568700Y-51258200D03*
X130568700Y-54558200D03*
%TD*%
D21*
%TO.C,R1*%
X225707600Y-70180200D03*
X225707600Y-68355200D03*
%TD*%
D12*
%TO.C,D42*%
X140910200Y-108164000D03*
X140910200Y-111464000D03*
%TD*%
D13*
%TO.C,SW29*%
X159473900Y-68286400D03*
D14*
X164473900Y-64536400D03*
D15*
X167718900Y-64536400D03*
X156228900Y-62336400D03*
D14*
X159473900Y-62336400D03*
D16*
X154473900Y-73436400D03*
%TD*%
D13*
%TO.C,SW11*%
X327677400Y-72014800D03*
D14*
X332677400Y-68264800D03*
D15*
X335922400Y-68264800D03*
X324432400Y-66064800D03*
D14*
X327677400Y-66064800D03*
D16*
X322677400Y-77164800D03*
%TD*%
D12*
%TO.C,D15*%
X279191300Y-87032600D03*
X279191300Y-90332600D03*
%TD*%
%TO.C,D7*%
X240786500Y-67710400D03*
X240786500Y-71010400D03*
%TD*%
%TO.C,D11*%
X317951700Y-70954400D03*
X317951700Y-74254400D03*
%TD*%
D13*
%TO.C,SW2*%
X269539300Y-50735200D03*
D14*
X274539300Y-46985200D03*
D15*
X277784300Y-46985200D03*
X266294300Y-44785200D03*
D14*
X269539300Y-44785200D03*
D16*
X264539300Y-55885200D03*
%TD*%
D29*
%TO.C,D41*%
X162336210Y-107283599D03*
X162048598Y-110571041D03*
%TD*%
D13*
%TO.C,SW1*%
X250336900Y-52469400D03*
D14*
X255336900Y-48719400D03*
D15*
X258581900Y-48719400D03*
X247091900Y-46519400D03*
D14*
X250336900Y-46519400D03*
D16*
X245336900Y-57619400D03*
%TD*%
D12*
%TO.C,D27*%
X73120100Y-51944800D03*
X73120100Y-55244800D03*
%TD*%
%TO.C,D35*%
X149618700Y-89434400D03*
X149618700Y-92734400D03*
%TD*%
%TO.C,D4*%
X298723900Y-49034200D03*
X298723900Y-52334200D03*
%TD*%
D13*
%TO.C,SW23*%
X159473900Y-50691400D03*
D14*
X164473900Y-46941400D03*
D15*
X167718900Y-46941400D03*
X156228900Y-44741400D03*
D14*
X159473900Y-44741400D03*
D16*
X154473900Y-55841400D03*
%TD*%
D30*
%TO.C,R4*%
X204597000Y-68175500D03*
X204597000Y-70000500D03*
%TD*%
D12*
%TO.C,D2*%
X259811100Y-53352200D03*
X259811100Y-56652200D03*
%TD*%
%TO.C,D29*%
X149694900Y-71070200D03*
X149694900Y-74370200D03*
%TD*%
D10*
%TO.C,H5*%
X293694700Y-104895000D03*
%TD*%
D12*
%TO.C,D8*%
X259760300Y-71114000D03*
X259760300Y-74414000D03*
%TD*%
D13*
%TO.C,SW25*%
X121119900Y-50560400D03*
D14*
X126119900Y-46810400D03*
D15*
X129364900Y-46810400D03*
X117874900Y-44610400D03*
D14*
X121119900Y-44610400D03*
D16*
X116119900Y-55710400D03*
%TD*%
D10*
%TO.C,H6*%
X279730200Y-59359800D03*
%TD*%
D13*
%TO.C,SW22*%
X178625500Y-52425600D03*
D14*
X183625500Y-48675600D03*
D15*
X186870500Y-48675600D03*
X175380500Y-46475600D03*
D14*
X178625500Y-46475600D03*
D16*
X173625500Y-57575600D03*
%TD*%
D12*
%TO.C,D30*%
X130594100Y-69673200D03*
X130594100Y-72973200D03*
%TD*%
D13*
%TO.C,SW5*%
X327677400Y-54419800D03*
D14*
X332677400Y-50669800D03*
D15*
X335922400Y-50669800D03*
X324432400Y-48469800D03*
D14*
X327677400Y-48469800D03*
D16*
X322677400Y-59569800D03*
%TD*%
D13*
%TO.C,SW32*%
X102019100Y-72041600D03*
D14*
X107019100Y-68291600D03*
D15*
X110264100Y-68291600D03*
X98774100Y-66091600D03*
D14*
X102019100Y-66091600D03*
D16*
X97019100Y-77191600D03*
%TD*%
D10*
%TO.C,H9*%
X92633800Y-63144400D03*
%TD*%
D12*
%TO.C,D9*%
X279343700Y-69760600D03*
X279343700Y-73060600D03*
%TD*%
D13*
%TO.C,SW21*%
X278384000Y-105765600D03*
D14*
X283180888Y-101759059D03*
D31*
X286421441Y-101589229D03*
X274832048Y-99993584D03*
D14*
X278072601Y-99823754D03*
D16*
X273660383Y-111170222D03*
%TD*%
D13*
%TO.C,SW24*%
X140366900Y-47733000D03*
D14*
X145366900Y-43983000D03*
D15*
X148611900Y-43983000D03*
X137121900Y-41783000D03*
D14*
X140366900Y-41783000D03*
D16*
X135366900Y-52883000D03*
%TD*%
D12*
%TO.C,D36*%
X130441700Y-86945200D03*
X130441700Y-90245200D03*
%TD*%
D13*
%TO.C,SW26*%
X102019100Y-54446600D03*
D14*
X107019100Y-50696600D03*
D15*
X110264100Y-50696600D03*
X98774100Y-48496600D03*
D14*
X102019100Y-48496600D03*
D16*
X97019100Y-59596600D03*
%TD*%
D13*
%TO.C,SW19*%
X233934000Y-115468400D03*
D14*
X236389127Y-109720805D03*
D32*
X239199379Y-108098305D03*
X228148748Y-111938049D03*
D14*
X230959000Y-110315549D03*
D16*
X232178873Y-122428431D03*
%TD*%
D19*
%TO.C,TP3*%
X200533000Y-72771000D03*
%TD*%
D12*
%TO.C,D10*%
X298825500Y-68465200D03*
X298825500Y-71765200D03*
%TD*%
D13*
%TO.C,SW28*%
X178625500Y-70020600D03*
D14*
X183625500Y-66270600D03*
D15*
X186870500Y-66270600D03*
X175380500Y-64070600D03*
D14*
X178625500Y-64070600D03*
D16*
X173625500Y-75170600D03*
%TD*%
D13*
%TO.C,SW27*%
X82769600Y-54384000D03*
D14*
X87769600Y-50634000D03*
D15*
X91014600Y-50634000D03*
X79524600Y-48434000D03*
D14*
X82769600Y-48434000D03*
D16*
X77769600Y-59534000D03*
%TD*%
D12*
%TO.C,D5*%
X318027900Y-51980600D03*
X318027900Y-55280600D03*
%TD*%
%TO.C,D16*%
X298647700Y-85026000D03*
X298647700Y-88326000D03*
%TD*%
D13*
%TO.C,SW6*%
X346926900Y-54482400D03*
D14*
X351926900Y-50732400D03*
D15*
X355171900Y-50732400D03*
X343681900Y-48532400D03*
D14*
X346926900Y-48532400D03*
D16*
X341926900Y-59632400D03*
%TD*%
D19*
%TO.C,TP1*%
X225783800Y-73736200D03*
%TD*%
D13*
%TO.C,SW17*%
X327677400Y-89609800D03*
D14*
X332677400Y-85859800D03*
D15*
X335922400Y-85859800D03*
X324432400Y-83659800D03*
D14*
X327677400Y-83659800D03*
D16*
X322677400Y-94759800D03*
%TD*%
D12*
%TO.C,D1*%
X241091300Y-50913800D03*
X241091300Y-54213800D03*
%TD*%
D30*
%TO.C,R3*%
X200609200Y-68124700D03*
X200609200Y-69949700D03*
%TD*%
D13*
%TO.C,SW18*%
X346926900Y-89672400D03*
D14*
X351926900Y-85922400D03*
D15*
X355171900Y-85922400D03*
X343681900Y-83722400D03*
D14*
X346926900Y-83722400D03*
D16*
X341926900Y-94822400D03*
%TD*%
D13*
%TO.C,SW3*%
X289116500Y-47820400D03*
D14*
X294116500Y-44070400D03*
D15*
X297361500Y-44070400D03*
X285871500Y-41870400D03*
D14*
X289116500Y-41870400D03*
D16*
X284116500Y-52970400D03*
%TD*%
D12*
%TO.C,D17*%
X318586700Y-88302600D03*
X318586700Y-91602600D03*
%TD*%
%TO.C,D31*%
X111620300Y-70994000D03*
X111620300Y-74294000D03*
%TD*%
%TO.C,D34*%
X169354500Y-87402400D03*
X169354500Y-90702400D03*
%TD*%
M02*
