M48
; DRILL file {KiCad 9.0.6} date 2026-06-17T20:18:17+0300
; FORMAT={-:-/ absolute / metric / decimal}
; #@! TF.CreationDate,2026-06-17T20:18:17+03:00
; #@! TF.GenerationSoftware,Kicad,Pcbnew,9.0.6
; #@! TF.FileFunction,NonPlated,1,4,NPTH
FMAT,2
METRIC
; #@! TA.AperFunction,NonPlated,NPTH,ComponentDrill
T1C0.500
; #@! TA.AperFunction,NonPlated,NPTH,ComponentDrill
T2C5.000
%
G90
G05
T1
X211.97Y-57.131
X211.97Y-57.881
X211.97Y-58.631
X211.97Y-59.381
X211.97Y-60.131
X211.97Y-60.881
X211.97Y-61.631
X211.97Y-62.381
X211.97Y-63.131
X211.97Y-63.881
X211.97Y-63.881
X211.97Y-64.631
X211.97Y-83.471
X211.97Y-84.221
X211.97Y-84.971
X211.97Y-85.721
X211.97Y-86.471
X211.97Y-87.221
X211.97Y-87.971
X211.97Y-88.721
X211.97Y-89.471
X211.97Y-90.221
X211.97Y-90.221
X211.97Y-90.971
X216.97Y-57.131
X216.97Y-57.881
X216.97Y-58.631
X216.97Y-59.381
X216.97Y-60.131
X216.97Y-60.881
X216.97Y-61.631
X216.97Y-62.381
X216.97Y-63.131
X216.97Y-63.881
X216.97Y-63.881
X216.97Y-64.631
X216.97Y-83.471
X216.97Y-84.221
X216.97Y-84.971
X216.97Y-85.721
X216.97Y-86.471
X216.97Y-87.221
X216.97Y-87.971
X216.97Y-88.721
X216.97Y-89.471
X216.97Y-90.221
X216.97Y-90.221
X216.97Y-90.971
T2
X82.77Y-54.384
X82.77Y-71.979
X82.77Y-89.574
X102.019Y-54.447
X102.019Y-72.042
X102.019Y-89.637
X121.12Y-50.56
X121.12Y-68.155
X121.12Y-85.75
X140.367Y-47.733
X140.367Y-65.328
X140.367Y-82.923
X150.901Y-106.02
X159.474Y-50.691
X159.474Y-68.286
X159.474Y-85.881
X171.577Y-108.001
X178.625Y-52.426
X178.625Y-70.021
X178.625Y-87.616
X195.199Y-115.545
X233.934Y-115.468
X250.337Y-52.469
X250.337Y-70.064
X250.337Y-87.659
X257.454Y-107.798
X269.539Y-50.735
X269.539Y-68.33
X269.539Y-85.925
X278.384Y-105.766
X289.116Y-47.82
X289.116Y-65.415
X289.116Y-83.01
X308.361Y-51.056
X308.361Y-68.651
X308.361Y-86.246
X327.677Y-54.42
X327.677Y-72.015
X327.677Y-89.61
X346.927Y-54.482
X346.927Y-72.077
X346.927Y-89.672
M30
