M48
; DRILL file {KiCad 9.0.6} date 2026-06-17T20:18:17+0300
; FORMAT={-:-/ absolute / metric / decimal}
; #@! TF.CreationDate,2026-06-17T20:18:17+03:00
; #@! TF.GenerationSoftware,Kicad,Pcbnew,9.0.6
; #@! TF.FileFunction,Plated,1,4,PTH
FMAT,2
METRIC
; #@! TA.AperFunction,Plated,PTH,ViaDrill
T1C0.300
; #@! TA.AperFunction,Plated,PTH,ComponentDrill
T2C1.600
; #@! TA.AperFunction,Plated,PTH,ComponentDrill
T3C2.500
; #@! TA.AperFunction,Plated,PTH,ComponentDrill
T4C3.000
; #@! TA.AperFunction,Plated,PTH,ComponentDrill
T5C3.200
%
G90
G05
T1
X74.231Y-70.206
X75.156Y-51.954
X76.045Y-88.352
X76.238Y-70.917
X77.762Y-57.328
X90.03Y-56.337
X90.106Y-58.725
X90.64Y-73.685
X90.64Y-76.2
X91.173Y-92.405
X94.628Y-55.347
X95.186Y-72.568
X96.035Y-90.384
X96.95Y-89.469
X97.346Y-91.415
X97.523Y-56.998
X99.047Y-93.624
X99.53Y-74.651
X107.912Y-71.857
X108.064Y-56.49
X109.36Y-78.715
X110.096Y-65.532
X112.062Y-89.789
X112.23Y-85.42
X113.652Y-70.891
X113.881Y-53.873
X114.973Y-89.205
X116.624Y-71.145
X116.7Y-53.899
X126.784Y-88.595
X127.648Y-52.883
X127.902Y-74.422
X128.105Y-70.409
X128.13Y-94.793
X129.299Y-62.281
X132.651Y-51.384
X132.753Y-86.995
X132.829Y-69.774
X133.871Y-72.568
X136.639Y-86.36
X136.792Y-51.283
X142.596Y-108.991
X142.697Y-106.223
X146.952Y-52.578
X147.256Y-71.679
X147.79Y-58.191
X148.323Y-76.581
X151.93Y-70.739
X152.082Y-53.213
X152.108Y-89.205
X154.216Y-89.205
X155.105Y-71.018
X155.842Y-53.543
X164.581Y-107.19
X164.986Y-70.028
X166.027Y-52.502
X167.119Y-79.019
X167.424Y-61.671
X170.498Y-50.089
X170.65Y-67.564
X171.412Y-87.427
X174.384Y-87.732
X175.489Y-100.635
X179.337Y-98.593
X185.204Y-109.703
X185.623Y-77.699
X186.258Y-89.281
X186.626Y-72.238
X186.83Y-61.112
X186.88Y-81.153
X186.982Y-64.364
X188.443Y-81.991
X189.459Y-103.429
X189.687Y-108.001
X190.297Y-99.162
X193.802Y-52.458
X194.793Y-48.768
X194.97Y-67.097
X195.062Y-59.573
X195.099Y-58.773
X200.101Y-60.538
X201.93Y-60.137
X205.308Y-61.738
X206.146Y-62.255
X206.604Y-46.914
X222.837Y-49.098
X223.345Y-58.776
X224.46Y-118.019
X226.038Y-56.794
X226.114Y-61.925
X226.266Y-66.472
X227.13Y-66.218
X227.206Y-63.068
X227.435Y-57.404
X227.689Y-65.557
X231.448Y-91.669
X231.473Y-95.758
X234.75Y-56.693
X235.207Y-46.914
X239.17Y-51.029
X239.211Y-68.199
X240.786Y-67.71
X241.015Y-99.605
X241.167Y-87.336
X241.193Y-50.938
X248.076Y-108.774
X259.837Y-71.131
X260.09Y-89.597
X260.141Y-53.427
X265.628Y-98.208
X267.821Y-108.433
X278.692Y-87.706
X279.42Y-51.421
X279.445Y-86.905
X279.649Y-69.785
X298.295Y-84.946
X298.851Y-49.059
X298.927Y-68.591
X298.978Y-85.101
X318.155Y-70.903
X318.18Y-52.107
X318.587Y-88.303
X319.738Y-88.392
X337.332Y-55.383
X337.332Y-91.579
X337.586Y-72.859
T2
X77.77Y-59.534
X77.77Y-77.129
X77.77Y-94.724
X97.019Y-59.597
X97.019Y-77.192
X97.019Y-94.787
X116.12Y-55.71
X116.12Y-73.305
X116.12Y-90.9
X135.367Y-52.883
X135.367Y-70.478
X135.367Y-88.073
X145.639Y-110.901
X154.474Y-55.841
X154.474Y-73.436
X154.474Y-91.031
X165.909Y-112.405
X173.625Y-57.576
X173.625Y-75.171
X173.625Y-92.766
X188.294Y-117.505
X232.179Y-122.428
X245.337Y-57.619
X245.337Y-75.214
X245.337Y-92.809
X253.22Y-113.593
X264.539Y-55.885
X264.539Y-73.48
X264.539Y-91.075
X273.66Y-111.17
X284.116Y-52.97
X284.116Y-70.565
X284.116Y-88.16
X303.361Y-56.206
X303.361Y-73.801
X303.361Y-91.396
X322.677Y-59.57
X322.677Y-77.165
X322.677Y-94.76
X341.927Y-59.632
X341.927Y-77.227
X341.927Y-94.822
T3
X204.652Y-50.518
X204.652Y-53.918
X233.23Y-50.416
X233.23Y-53.816
T4
X82.77Y-48.434
X82.77Y-66.029
X82.77Y-83.624
X87.77Y-50.634
X87.77Y-68.229
X87.77Y-85.824
X102.019Y-48.497
X102.019Y-66.092
X102.019Y-83.687
X107.019Y-50.697
X107.019Y-68.292
X107.019Y-85.887
X121.12Y-44.61
X121.12Y-62.205
X121.12Y-79.8
X126.12Y-46.81
X126.12Y-64.405
X126.12Y-82.0
X140.367Y-41.783
X140.367Y-59.378
X140.367Y-76.973
X145.367Y-43.983
X145.367Y-61.578
X145.367Y-79.173
X151.213Y-100.078
X156.091Y-102.536
X159.474Y-44.741
X159.474Y-62.336
X159.474Y-79.931
X164.474Y-46.941
X164.474Y-64.536
X164.474Y-82.131
X172.405Y-102.109
X177.05Y-104.983
X178.625Y-46.476
X178.625Y-64.071
X178.625Y-81.666
X183.625Y-48.676
X183.625Y-66.271
X183.625Y-83.866
X198.174Y-110.392
X201.404Y-114.797
X230.959Y-110.316
X236.389Y-109.721
X250.337Y-46.519
X250.337Y-64.114
X250.337Y-81.709
X255.337Y-48.719
X255.337Y-66.314
X255.337Y-83.909
X256.626Y-101.906
X261.884Y-103.388
X269.539Y-44.785
X269.539Y-62.38
X269.539Y-79.975
X274.539Y-46.985
X274.539Y-64.58
X274.539Y-82.175
X278.073Y-99.824
X283.181Y-101.759
X289.116Y-41.87
X289.116Y-59.465
X289.116Y-77.06
X294.116Y-44.07
X294.116Y-61.665
X294.116Y-79.26
X308.361Y-45.106
X308.361Y-62.701
X308.361Y-80.296
X313.361Y-47.306
X313.361Y-64.901
X313.361Y-82.496
X327.677Y-48.47
X327.677Y-66.065
X327.677Y-83.66
X332.677Y-50.67
X332.677Y-68.265
X332.677Y-85.86
X346.927Y-48.532
X346.927Y-66.127
X346.927Y-83.722
X351.927Y-50.732
X351.927Y-68.327
X351.927Y-85.922
T5
X92.329Y-80.772
X92.634Y-63.144
X136.131Y-104.115
X185.204Y-103.175
X191.846Y-72.923
X243.809Y-104.013
X279.73Y-59.36
X293.695Y-104.895
X337.058Y-63.144
X337.337Y-80.975
M30
