%TF.GenerationSoftware,KiCad,Pcbnew,9.0.6*%
%TF.CreationDate,2026-06-17T20:19:38+03:00*%
%TF.ProjectId,final,66696e61-6c2e-46b6-9963-61645f706362,rev?*%
%TF.SameCoordinates,Original*%
%TF.FileFunction,Soldermask,Top*%
%TF.FilePolarity,Negative*%
%FSLAX46Y46*%
G04 Gerber Fmt 4.6, Leading zero omitted, Abs format (unit mm)*
G04 Created by KiCad (PCBNEW 9.0.6) date 2026-06-17 20:19:38*
%MOMM*%
%LPD*%
G01*
G04 APERTURE LIST*
G04 Aperture macros list*
%AMRoundRect*
0 Rectangle with rounded corners*
0 $1 Rounding radius*
0 $2 $3 $4 $5 $6 $7 $8 $9 X,Y pos of 4 corners*
0 Add a 4 corners polygon primitive as box body*
4,1,4,$2,$3,$4,$5,$6,$7,$8,$9,$2,$3,0*
0 Add four circle primitives for the rounded corners*
1,1,$1+$1,$2,$3*
1,1,$1+$1,$4,$5*
1,1,$1+$1,$6,$7*
1,1,$1+$1,$8,$9*
0 Add four rect primitives between the rounded corners*
20,1,$1+$1,$2,$3,$4,$5,0*
20,1,$1+$1,$4,$5,$6,$7,0*
20,1,$1+$1,$6,$7,$8,$9,0*
20,1,$1+$1,$8,$9,$2,$3,0*%
G04 Aperture macros list end*
%ADD10C,6.400000*%
%ADD11C,0.500000*%
%ADD12C,5.000000*%
%ADD13RoundRect,0.775400X-0.775400X-0.775400X0.775400X-0.775400X0.775400X0.775400X-0.775400X0.775400X0*%
G04 APERTURE END LIST*
D10*
%TO.C,H11*%
X185204100Y-103174800D03*
%TD*%
%TO.C,H12*%
X136131300Y-104114600D03*
%TD*%
D11*
%TO.C,H3*%
X211969537Y-90970563D03*
X216969537Y-90970563D03*
X211969537Y-90220563D03*
X211969537Y-90220563D03*
X216969537Y-90220563D03*
X216969537Y-90220563D03*
X211969537Y-89470563D03*
X216969537Y-89470563D03*
X211969537Y-88720563D03*
X216969537Y-88720563D03*
X211969537Y-87970563D03*
X216969537Y-87970563D03*
X211969537Y-87220563D03*
X216969537Y-87220563D03*
X211969537Y-86470563D03*
X216969537Y-86470563D03*
X211969537Y-85720563D03*
X216969537Y-85720563D03*
X211969537Y-84970563D03*
X216969537Y-84970563D03*
X211969537Y-84220563D03*
X216969537Y-84220563D03*
X211969537Y-83470563D03*
X216969537Y-83470563D03*
%TD*%
D10*
%TO.C,H13*%
X191846200Y-72923400D03*
%TD*%
D11*
%TO.C,H2*%
X211969537Y-64630763D03*
X216969537Y-64630763D03*
X211969537Y-63880763D03*
X211969537Y-63880763D03*
X216969537Y-63880763D03*
X216969537Y-63880763D03*
X211969537Y-63130763D03*
X216969537Y-63130763D03*
X211969537Y-62380763D03*
X216969537Y-62380763D03*
X211969537Y-61630763D03*
X216969537Y-61630763D03*
X211969537Y-60880763D03*
X216969537Y-60880763D03*
X211969537Y-60130763D03*
X216969537Y-60130763D03*
X211969537Y-59380763D03*
X216969537Y-59380763D03*
X211969537Y-58630763D03*
X216969537Y-58630763D03*
X211969537Y-57880763D03*
X216969537Y-57880763D03*
X211969537Y-57130763D03*
X216969537Y-57130763D03*
%TD*%
D12*
%TO.C,SW39*%
X82769600Y-89574000D03*
%TD*%
%TO.C,SW31*%
X121119900Y-68155400D03*
%TD*%
%TO.C,SW30*%
X140366900Y-65328000D03*
%TD*%
%TO.C,SW41*%
X171577000Y-108000800D03*
%TD*%
%TO.C,SW13*%
X250336900Y-87659400D03*
%TD*%
%TO.C,SW42*%
X150901400Y-106019600D03*
%TD*%
%TO.C,SW34*%
X178625500Y-87615600D03*
%TD*%
%TO.C,SW35*%
X159473900Y-85881400D03*
%TD*%
%TO.C,SW15*%
X289116500Y-83010400D03*
%TD*%
%TO.C,SW14*%
X269539300Y-85925200D03*
%TD*%
%TO.C,SW9*%
X289116500Y-65415400D03*
%TD*%
%TO.C,SW8*%
X269539300Y-68330200D03*
%TD*%
%TO.C,SW4*%
X308360500Y-51056000D03*
%TD*%
D10*
%TO.C,H8*%
X337058000Y-63144400D03*
%TD*%
D12*
%TO.C,SW38*%
X102019100Y-89636600D03*
%TD*%
%TO.C,SW20*%
X257454400Y-107797600D03*
%TD*%
D10*
%TO.C,H4*%
X243809100Y-104013000D03*
%TD*%
D12*
%TO.C,SW33*%
X82769600Y-71979000D03*
%TD*%
%TO.C,SW10*%
X308360500Y-68651000D03*
%TD*%
%TO.C,SW12*%
X346926900Y-72077400D03*
%TD*%
D10*
%TO.C,H7*%
X337337400Y-80975200D03*
%TD*%
D12*
%TO.C,SW37*%
X121119900Y-85750400D03*
%TD*%
D13*
%TO.C,U2*%
X204652000Y-53917800D03*
X204652000Y-50517800D03*
%TD*%
D12*
%TO.C,SW40*%
X195199000Y-115544600D03*
%TD*%
%TO.C,SW36*%
X140366900Y-82923000D03*
%TD*%
%TO.C,SW16*%
X308360500Y-86246000D03*
%TD*%
D13*
%TO.C,U1*%
X233230200Y-53816200D03*
X233230200Y-50416200D03*
%TD*%
D12*
%TO.C,SW7*%
X250336900Y-70064400D03*
%TD*%
D10*
%TO.C,H10*%
X92329000Y-80772000D03*
%TD*%
D12*
%TO.C,SW29*%
X159473900Y-68286400D03*
%TD*%
%TO.C,SW11*%
X327677400Y-72014800D03*
%TD*%
%TO.C,SW2*%
X269539300Y-50735200D03*
%TD*%
%TO.C,SW1*%
X250336900Y-52469400D03*
%TD*%
%TO.C,SW23*%
X159473900Y-50691400D03*
%TD*%
D10*
%TO.C,H5*%
X293694700Y-104895000D03*
%TD*%
D12*
%TO.C,SW25*%
X121119900Y-50560400D03*
%TD*%
D10*
%TO.C,H6*%
X279730200Y-59359800D03*
%TD*%
D12*
%TO.C,SW22*%
X178625500Y-52425600D03*
%TD*%
%TO.C,SW5*%
X327677400Y-54419800D03*
%TD*%
%TO.C,SW32*%
X102019100Y-72041600D03*
%TD*%
D10*
%TO.C,H9*%
X92633800Y-63144400D03*
%TD*%
D12*
%TO.C,SW21*%
X278384000Y-105765600D03*
%TD*%
%TO.C,SW24*%
X140366900Y-47733000D03*
%TD*%
%TO.C,SW26*%
X102019100Y-54446600D03*
%TD*%
%TO.C,SW19*%
X233934000Y-115468400D03*
%TD*%
%TO.C,SW28*%
X178625500Y-70020600D03*
%TD*%
%TO.C,SW27*%
X82769600Y-54384000D03*
%TD*%
%TO.C,SW6*%
X346926900Y-54482400D03*
%TD*%
%TO.C,SW17*%
X327677400Y-89609800D03*
%TD*%
%TO.C,SW18*%
X346926900Y-89672400D03*
%TD*%
%TO.C,SW3*%
X289116500Y-47820400D03*
%TD*%
M02*
